<?xml version="1.0" standalone="no"?>
<!DOCTYPE svg PUBLIC "-//W3C//DTD SVG 20010904//EN"
 "http://www.w3.org/TR/2001/REC-SVG-20010904/DTD/svg10.dtd">
<svg version="1.0" xmlns="http://www.w3.org/2000/svg"
 width="512.000000pt" height="512.000000pt" viewBox="0 0 512.000000 512.000000"
 preserveAspectRatio="xMidYMid meet">

<g transform="translate(0.000000,512.000000) scale(0.100000,-0.100000)"
fill="#000000" stroke="none">
<path d="M925 4705 c-148 -28 -257 -88 -361 -197 -81 -85 -136 -184 -164 -294
-19 -75 -20 -117 -20 -1654 0 -1537 1 -1579 20 -1654 31 -123 81 -209 179
-306 64 -63 105 -95 161 -123 148 -73 122 -71 837 -75 419 -2 656 1 681 7 21
6 53 26 72 45 27 29 34 45 38 89 5 64 -12 105 -60 139 l-33 23 -660 5 -660 5
-57 27 c-69 32 -146 106 -177 170 -12 26 -27 76 -32 110 -11 83 -11 2993 0
3076 18 123 88 220 199 274 l67 33 660 5 c621 5 662 6 687 24 48 32 71 80 66
140 -5 58 -26 94 -73 123 -28 17 -68 18 -665 20 -493 1 -651 -1 -705 -12z"/>
<path d="M3510 3772 c-82 -41 -107 -152 -51 -228 16 -21 194 -203 395 -404
l366 -365 -1419 -5 c-1414 -5 -1420 -5 -1447 -26 -51 -38 -69 -71 -69 -129 0
-58 18 -91 69 -129 27 -21 33 -21 1442 -26 l1414 -5 -361 -360 c-199 -198
-374 -378 -390 -399 -66 -89 -18 -222 87 -242 88 -16 67 -34 636 534 290 289
535 541 543 558 19 41 19 107 0 148 -20 42 -1052 1072 -1088 1085 -41 16 -87
13 -127 -7z"/>
</g>
</svg>
