<?xml version="1.0" standalone="no"?>
<!DOCTYPE svg PUBLIC "-//W3C//DTD SVG 20010904//EN"
 "http://www.w3.org/TR/2001/REC-SVG-20010904/DTD/svg10.dtd">
<svg version="1.0" xmlns="http://www.w3.org/2000/svg"
 width="512.000000pt" height="512.000000pt" viewBox="0 0 512.000000 512.000000"
 preserveAspectRatio="xMidYMid meet">

<g transform="translate(0.000000,512.000000) scale(0.100000,-0.100000)"
fill="#000000" stroke="none">
<path d="M4143 4872 c-164 -59 -241 -230 -176 -394 l15 -38 -58 -63 c-33 -35
-194 -207 -359 -381 -238 -251 -304 -316 -320 -312 -11 2 -40 10 -65 16 -94
24 -197 -9 -275 -87 l-45 -46 -279 79 -279 78 -11 55 c-45 226 -314 320 -485
170 -85 -75 -120 -189 -92 -299 9 -35 13 -67 9 -71 -5 -4 -160 -146 -347 -317
l-338 -310 -47 21 c-64 29 -159 28 -227 -2 -150 -66 -221 -245 -153 -391 31
-67 75 -112 143 -147 73 -38 179 -38 252 0 133 68 198 208 160 340 -9 30 -16
57 -16 60 0 3 156 148 346 322 l346 317 41 -18 c29 -14 65 -19 122 -19 70 0
87 4 134 30 29 16 68 47 86 67 l32 39 278 -79 278 -78 17 -60 c21 -77 40 -111
87 -156 175 -169 463 -63 498 182 5 41 -1 74 -30 166 -6 18 50 81 354 402
l360 380 43 -15 c66 -23 184 -13 239 19 101 60 153 148 153 263 0 84 -26 147
-87 208 -77 77 -202 106 -304 69z m151 -156 c72 -30 101 -108 67 -179 -25 -52
-65 -77 -121 -77 -60 0 -105 30 -126 85 -25 67 -4 127 59 165 38 23 75 25 121
6z m-2198 -899 c43 -46 52 -94 28 -144 -54 -109 -194 -109 -248 0 -23 47 -16
94 21 138 35 41 58 50 117 45 42 -3 55 -9 82 -39z m1099 -291 c59 -39 78 -131
40 -189 -51 -79 -179 -79 -230 0 -26 39 -26 114 1 150 44 61 129 78 189 39z
m-2239 -712 c63 -42 78 -136 31 -197 -51 -67 -140 -73 -201 -13 -57 58 -57
134 0 191 18 19 43 36 56 38 34 7 88 -2 114 -19z"/>
<path d="M4045 3316 c-90 -29 -143 -74 -186 -156 l-24 -45 -3 -1319 c-3 -1476
-8 -1373 70 -1461 22 -25 64 -58 92 -73 50 -27 53 -27 246 -27 192 0 196 0
245 27 60 31 104 77 136 138 l24 45 0 1335 0 1335 -27 51 c-31 59 -84 108
-147 138 -40 18 -67 21 -216 23 -118 2 -182 -1 -210 -11z m363 -160 c15 -8 38
-26 52 -41 l25 -27 3 -1296 c2 -1242 1 -1298 -16 -1331 -34 -63 -66 -72 -242
-69 -137 3 -158 5 -182 23 -62 45 -58 -41 -56 1378 3 1279 3 1295 23 1317 48
54 70 60 223 60 103 0 150 -4 170 -14z"/>
<path d="M1780 2453 c-28 -10 -66 -37 -101 -72 -95 -96 -89 -26 -89 -1027 0
-978 -3 -933 73 -1020 22 -25 63 -57 91 -72 50 -27 53 -27 246 -27 193 0 196
0 246 27 28 15 69 47 91 72 76 87 73 42 73 1020 0 1001 6 931 -89 1027 -81 80
-114 89 -325 88 -129 0 -182 -4 -216 -16z m399 -161 c19 -10 43 -34 53 -53 17
-32 18 -80 18 -889 0 -809 -1 -857 -18 -889 -34 -63 -66 -72 -242 -69 -137 3
-158 5 -182 23 -61 44 -58 3 -58 937 0 807 1 855 18 887 33 61 67 71 232 71
122 0 151 -3 179 -18z"/>
<path d="M2953 2120 c-94 -20 -164 -71 -208 -151 l-30 -54 -3 -714 c-3 -805
-5 -781 69 -865 23 -26 65 -59 93 -74 50 -27 53 -27 246 -27 193 0 196 0 246
27 68 36 127 104 148 171 15 48 16 123 14 767 l-3 715 -31 55 c-34 60 -103
119 -162 140 -45 15 -321 22 -379 10z m351 -173 c15 -10 36 -32 46 -50 19 -31
20 -56 20 -717 0 -645 -1 -687 -18 -719 -34 -63 -66 -72 -242 -69 -137 3 -158
5 -182 23 -60 44 -58 20 -58 765 0 727 -1 709 49 754 32 29 75 35 222 33 111
-2 140 -6 163 -20z"/>
<path d="M643 1526 c-68 -32 -127 -95 -153 -162 -19 -52 -20 -76 -20 -468 0
-467 2 -481 73 -562 22 -25 63 -57 91 -72 50 -27 53 -27 246 -27 193 0 196 0
246 27 28 15 70 48 93 74 69 79 71 92 71 560 0 392 -1 416 -20 468 -26 67 -85
130 -153 162 -49 22 -63 24 -237 24 -174 0 -188 -2 -237 -24z m418 -151 c16
-9 39 -30 49 -48 19 -30 20 -53 20 -432 0 -369 -1 -403 -18 -434 -34 -63 -66
-72 -242 -69 -172 3 -194 10 -225 75 -23 47 -23 809 0 854 31 60 63 69 233 69
119 0 160 -3 183 -15z"/>
</g>
</svg>
